<?xml version="1.0" encoding="UTF-8" standalone="no"?><!DOCTYPE svg PUBLIC "-//W3C//DTD SVG 1.1//EN" "http://www.w3.org/Graphics/SVG/1.1/DTD/svg11.dtd"><svg width="100%" height="100%" viewBox="0 0 180 52" version="1.1" xmlns="http://www.w3.org/2000/svg" xmlns:xlink="http://www.w3.org/1999/xlink" xml:space="preserve" xmlns:serif="http://www.serif.com/" style="fill-rule:evenodd;clip-rule:evenodd;stroke-linejoin:round;stroke-miterlimit:2;"><rect id="Монтажная-область1" serif:id="Монтажная область1" x="0" y="0" width="179.82" height="51.939" style="fill:none;"/><path d="M21.363,0.848l-21.257,12.272l-0,22.374c-0,1.624 0.971,3.065 2.547,3.78c1.576,0.714 3.518,0.594 5.094,-0.316c6.095,-3.519 13.616,-7.861 13.616,-7.861l-0,-30.249Z" style="fill:#a82a1c;"/><path d="M36.021,9.245l-21.4,12.355l0,26.368l21.4,-12.356l0,-26.367Z" style="fill:#d43;"/><path d="M20.568,24.925l-20.473,-11.819l0,26.746l20.473,11.82l-0,-26.747Z" style="fill:#111;"/><clipPath id="_clip1"><path d="M20.568,24.925l-20.473,-11.819l0,26.746l20.473,11.82l-0,-26.747Z"/></clipPath><g clip-path="url(#_clip1)"><g id="Слой1"></g></g><g><path d="M54.21,21.019l7.497,0c4.756,0 7.712,-2.613 7.712,-6.4c-0,-3.797 -2.956,-6.234 -7.712,-6.234l-3.259,-0l-0,-3.915l9.062,0l0,-3.493l-13.3,-0l0,20.042Zm4.238,-3.406l-0,-5.881l3.259,-0c2.27,-0 3.513,1.252 3.513,2.848c0,1.644 -1.243,3.033 -3.513,3.033l-3.259,0Z" style="fill-rule:nonzero;"/><path d="M76.064,10.606l-0,-4.619l-3.983,0l-0,15.032l7.105,0c3.983,0 6.322,-2.084 6.332,-5.187c-0.01,-3.161 -2.349,-5.226 -6.332,-5.226l-3.122,0Zm11.068,10.413l4.169,0l0,-15.032l-4.169,0l0,15.032Zm-11.068,-7.134l3.122,-0c1.399,-0 2.388,0.822 2.407,1.977c-0.019,1.096 -1.008,1.879 -2.407,1.879l-3.122,-0l-0,-3.856Z" style="fill-rule:nonzero;"/><path d="M101.421,21.313c4.003,-0 6.518,-2.349 6.713,-5.804l-3.934,0c-0.244,1.605 -1.301,2.506 -2.73,2.506c-1.948,-0 -3.21,-1.635 -3.21,-4.512c-0,-2.838 1.272,-4.462 3.21,-4.462c1.527,-0 2.505,1.008 2.73,2.505l3.934,-0c-0.176,-3.474 -2.808,-5.755 -6.733,-5.755c-4.56,0 -7.379,3.161 -7.379,7.771c0,4.57 2.77,7.751 7.399,7.751Z" style="fill-rule:nonzero;"/><path d="M109.818,9.266l4.805,-0l0,11.753l3.973,0l0,-11.753l4.845,-0l-0,-3.279l-13.623,0l-0,3.279Z" style="fill-rule:nonzero;"/><path d="M125.976,26.656l4.169,0l-0,-8.044l0.127,-0c0.577,1.252 1.84,2.652 4.267,2.652c3.425,-0 6.097,-2.711 6.097,-7.741c-0,-5.167 -2.789,-7.732 -6.088,-7.732c-2.515,0 -3.718,1.498 -4.276,2.721l-0.186,0l-0,-2.525l-4.11,0l-0,20.669Zm4.081,-13.153c-0,-2.681 1.135,-4.394 3.161,-4.394c2.064,0 3.161,1.791 3.161,4.394c-0,2.623 -1.116,4.443 -3.161,4.443c-2.007,0 -3.161,-1.761 -3.161,-4.443Z" style="fill-rule:nonzero;"/><path d="M147.389,10.606l-0,-4.619l-3.984,0l0,15.032l7.105,0c3.984,0 6.322,-2.084 6.332,-5.187c-0.01,-3.161 -2.348,-5.226 -6.332,-5.226l-3.121,0Zm11.068,10.413l4.169,0l0,-15.032l-4.169,0l0,15.032Zm-11.068,-7.134l3.121,-0c1.4,-0 2.388,0.822 2.408,1.977c-0.02,1.096 -1.008,1.879 -2.408,1.879l-3.121,-0l-0,-3.856Z" style="fill-rule:nonzero;"/><path d="M172.804,21.313c3.719,-0 6.225,-1.811 6.812,-4.6l-3.856,-0.254c-0.421,1.145 -1.497,1.742 -2.887,1.742c-2.085,-0 -3.406,-1.38 -3.406,-3.621l0,-0.01l10.237,-0l-0,-1.145c-0,-5.109 -3.093,-7.634 -7.066,-7.634c-4.424,0 -7.291,3.142 -7.291,7.781c0,4.766 2.828,7.741 7.457,7.741Zm-3.337,-9.327c0.088,-1.712 1.39,-3.082 3.239,-3.082c1.811,-0 3.064,1.291 3.073,3.082l-6.312,0Z" style="fill-rule:nonzero;"/></g><g><path d="M61.133,51.566c4.782,-0 7.758,-3.274 7.758,-8.128c0,-4.885 -2.976,-8.148 -7.758,-8.148c-4.782,-0 -7.758,3.263 -7.758,8.148c-0,4.854 2.976,8.128 7.758,8.128Zm0.021,-3.387c-2.207,0 -3.336,-2.022 -3.336,-4.772c0,-2.75 1.129,-4.782 3.336,-4.782c2.165,-0 3.294,2.032 3.294,4.782c-0,2.75 -1.129,4.772 -3.294,4.772Z" style="fill-rule:nonzero;"/><path d="M70.216,38.933l5.038,-0l0,12.325l4.167,-0l-0,-12.325l5.08,-0l-0,-3.438l-14.285,-0l-0,3.438Z" style="fill-rule:nonzero;"/><path d="M100.264,35.495l-4.146,-0l-0,7.543c-0.749,0.174 -1.478,0.256 -2.237,0.256c-2.32,0 -3.171,-0.616 -3.171,-2.442l-0,-5.378l-4.126,0l0,5.378c0,4.105 2.761,5.88 7.297,5.88c0.687,0 1.488,-0.092 2.237,-0.236l-0,4.762l4.146,-0l-0,-15.763Z" style="fill-rule:nonzero;"/><path d="M110.845,51.566c3.899,-0 6.526,-1.899 7.142,-4.824l-4.043,-0.266c-0.441,1.2 -1.57,1.826 -3.028,1.826c-2.185,0 -3.571,-1.447 -3.571,-3.797l0,-0.01l10.735,-0l-0,-1.201c-0,-5.357 -3.243,-8.004 -7.41,-8.004c-4.638,-0 -7.645,3.294 -7.645,8.158c-0,4.998 2.966,8.118 7.82,8.118Zm-3.5,-9.78c0.093,-1.796 1.457,-3.233 3.397,-3.233c1.899,0 3.212,1.355 3.222,3.233l-6.619,-0Z" style="fill-rule:nonzero;"/><path d="M119.712,38.933l5.038,-0l0,12.325l4.167,-0l-0,-12.325l5.08,-0l-0,-3.438l-14.285,-0l-0,3.438Z" style="fill-rule:nonzero;"/><path d="M140.832,40.339l-0,-4.844l-4.177,-0l-0,15.763l7.45,-0c4.177,-0 6.63,-2.186 6.64,-5.439c-0.01,-3.315 -2.463,-5.48 -6.64,-5.48l-3.273,-0Zm11.606,10.919l4.372,-0l0,-15.763l-4.372,-0l0,15.763Zm-11.606,-7.481l3.273,-0c1.468,-0 2.504,0.862 2.525,2.073c-0.021,1.149 -1.057,1.97 -2.525,1.97l-3.273,-0l-0,-4.043Z" style="fill-rule:nonzero;"/></g></svg>